# xmcd
#
# Track frame offsets:
#	150
#	11297
#	24375
#	35877
#	48827
#	63502
#	72825
#	84577
#	98540
#	111837
#	127887
#
# Disc length: 1864 seconds
#
# Revision: 1
# Processed by: cddbd v1.5PL3 Copyright (c) Steve Scherf et al.
# Submitted via: audiograbber 1.83.01
#
DISCID=8307460b
DTITLE=Charlie McCoy - The Fastest Harp In The South
DYEAR=1988
DGENRE=Country
TTITLE0=Silver Wings
TTITLE1=Why Me
TTITLE2=Paper Roses
TTITLE3=You Are The Sunshine Of My Life
TTITLE4=Almost Persuaded
TTITLE5=The Fastest Harp In The South
TTITLE6=Release Me
TTITLE7=Rollin' In My Sweet Baby's Arms
TTITLE8=Behind Closed Doors
TTITLE9=Tribute To Bob Wills-Faded Love/Maiden's Prayer
TTITLE10=Ruby (Are You Mad At Your Man)
EXTD=
EXTT0=
EXTT1=
EXTT2=
EXTT3=
EXTT4=
EXTT5=
EXTT6=
EXTT7=
EXTT8=
EXTT9=
EXTT10=
PLAYORDER=
